<mxfile host="app.diagrams.net" agent="Mozilla/5.0 (X11; Ubuntu; Linux x86_64; rv:109.0) Gecko/20100101 Firefox/113.0" version="26.0.15">
  <diagram name="Page-1" id="bj0MLlzBdkoXita-8X57">
    <mxGraphModel grid="1" page="1" gridSize="10" guides="1" tooltips="1" connect="1" arrows="1" fold="1" pageScale="1" pageWidth="850" pageHeight="1100" math="0" shadow="0">
      <root>
        <mxCell id="0" />
        <mxCell id="1" parent="0" />
        <mxCell id="_8FWMHebt4FlT4-nfuqf-1" value="&lt;div&gt;Audio Formatter&lt;/div&gt;&lt;div&gt;(DMA)&lt;br&gt;&lt;/div&gt;" style="whiteSpace=wrap;html=1;aspect=fixed;" vertex="1" parent="1">
          <mxGeometry x="300" y="320" width="80" height="80" as="geometry" />
        </mxCell>
        <mxCell id="_8FWMHebt4FlT4-nfuqf-6" value="" style="verticalLabelPosition=bottom;verticalAlign=top;html=1;shape=mxgraph.basic.x;rotation=90;shadow=1;sketch=1;curveFitting=1;jiggle=2;" vertex="1" parent="1">
          <mxGeometry x="640" y="310" width="100" height="100" as="geometry" />
        </mxCell>
        <mxCell id="_8FWMHebt4FlT4-nfuqf-9" value="" style="verticalLabelPosition=bottom;verticalAlign=top;html=1;shape=mxgraph.basic.patternFillRect;fillStyle=hor;step=5;fillStrokeWidth=0.2;fillStrokeColor=#dddddd;" vertex="1" parent="1">
          <mxGeometry x="40" y="290" width="160" height="160" as="geometry" />
        </mxCell>
        <mxCell id="_8FWMHebt4FlT4-nfuqf-10" value="&lt;div align=&quot;center&quot;&gt;DDR&amp;nbsp; &lt;br&gt;&lt;/div&gt;&lt;div align=&quot;center&quot;&gt;&lt;br&gt;&lt;/div&gt;&lt;div align=&quot;center&quot;&gt;&lt;br&gt;&lt;/div&gt;&lt;div align=&quot;center&quot;&gt;&lt;br&gt;&lt;/div&gt;&lt;div align=&quot;center&quot;&gt;&lt;br&gt;&lt;/div&gt;&lt;div align=&quot;center&quot;&gt;&lt;br&gt;&lt;/div&gt;&lt;div align=&quot;center&quot;&gt;&lt;br&gt;&lt;/div&gt;&lt;div align=&quot;center&quot;&gt;&lt;br&gt;&lt;/div&gt;&lt;div align=&quot;center&quot;&gt;&lt;br&gt;&lt;/div&gt;&lt;div align=&quot;center&quot;&gt;&lt;font size=&quot;1&quot;&gt;Ring Buffer&lt;/font&gt;&lt;br&gt;&lt;/div&gt;" style="whiteSpace=wrap;html=1;shape=mxgraph.basic.cloud_rect;align=center;" vertex="1" parent="1">
          <mxGeometry x="20" y="10" width="250" height="180" as="geometry" />
        </mxCell>
        <mxCell id="_8FWMHebt4FlT4-nfuqf-30" style="edgeStyle=orthogonalEdgeStyle;rounded=0;orthogonalLoop=1;jettySize=auto;html=1;" edge="1" parent="1" source="_8FWMHebt4FlT4-nfuqf-13" target="_8FWMHebt4FlT4-nfuqf-1">
          <mxGeometry relative="1" as="geometry" />
        </mxCell>
        <mxCell id="_8FWMHebt4FlT4-nfuqf-13" value="" style="verticalLabelPosition=bottom;verticalAlign=top;html=1;shape=mxgraph.basic.donut;dx=25;" vertex="1" parent="1">
          <mxGeometry x="60" y="120" width="180" height="80" as="geometry" />
        </mxCell>
        <mxCell id="_8FWMHebt4FlT4-nfuqf-14" value="I2S Tx" style="html=1;shadow=1;dashed=0;align=center;verticalAlign=middle;shape=mxgraph.arrows2.arrow;dy=0.6;dx=40;notch=0;textShadow=0;labelBorderColor=none;labelBackgroundColor=none;" vertex="1" parent="1">
          <mxGeometry x="430" y="200" width="110" height="70" as="geometry" />
        </mxCell>
        <mxCell id="_8FWMHebt4FlT4-nfuqf-39" style="edgeStyle=orthogonalEdgeStyle;rounded=0;orthogonalLoop=1;jettySize=auto;html=1;exitX=1;exitY=0.5;exitDx=0;exitDy=0;exitPerimeter=0;entryX=0.5;entryY=1;entryDx=0;entryDy=0;" edge="1" parent="1" source="_8FWMHebt4FlT4-nfuqf-15" target="_8FWMHebt4FlT4-nfuqf-1">
          <mxGeometry relative="1" as="geometry" />
        </mxCell>
        <mxCell id="_8FWMHebt4FlT4-nfuqf-15" value="I2S Rx" style="html=1;shadow=1;dashed=0;align=center;verticalAlign=middle;shape=mxgraph.arrows2.arrow;dy=0.6;dx=40;flipH=1;notch=0;" vertex="1" parent="1">
          <mxGeometry x="430" y="420" width="95" height="70" as="geometry" />
        </mxCell>
        <mxCell id="_8FWMHebt4FlT4-nfuqf-17" style="edgeStyle=orthogonalEdgeStyle;rounded=0;orthogonalLoop=1;jettySize=auto;html=1;exitX=1;exitY=1;exitDx=0;exitDy=0;exitPerimeter=0;entryX=0;entryY=0.5;entryDx=0;entryDy=0;entryPerimeter=0;" edge="1" parent="1" source="_8FWMHebt4FlT4-nfuqf-6" target="_8FWMHebt4FlT4-nfuqf-15">
          <mxGeometry relative="1" as="geometry" />
        </mxCell>
        <mxCell id="_8FWMHebt4FlT4-nfuqf-19" style="edgeStyle=orthogonalEdgeStyle;rounded=0;orthogonalLoop=1;jettySize=auto;html=1;entryX=0;entryY=1;entryDx=0;entryDy=0;entryPerimeter=0;" edge="1" parent="1" source="_8FWMHebt4FlT4-nfuqf-14" target="_8FWMHebt4FlT4-nfuqf-6">
          <mxGeometry relative="1" as="geometry" />
        </mxCell>
        <mxCell id="_8FWMHebt4FlT4-nfuqf-21" value="&lt;div align=&quot;center&quot;&gt;MIC&lt;/div&gt;" style="html=1;shadow=0;dashed=0;align=center;verticalAlign=middle;shape=mxgraph.arrows2.arrow;dy=0.6;dx=40;flipH=1;notch=0;" vertex="1" parent="1">
          <mxGeometry x="780" y="200" width="90" height="70" as="geometry" />
        </mxCell>
        <mxCell id="_8FWMHebt4FlT4-nfuqf-23" value="SPEAKER" style="html=1;shadow=0;dashed=0;align=center;verticalAlign=middle;shape=mxgraph.arrows2.arrow;dy=0.6;dx=40;notch=0;" vertex="1" parent="1">
          <mxGeometry x="800" y="420" width="90" height="70" as="geometry" />
        </mxCell>
        <mxCell id="_8FWMHebt4FlT4-nfuqf-25" style="edgeStyle=orthogonalEdgeStyle;rounded=0;orthogonalLoop=1;jettySize=auto;html=1;exitX=1;exitY=0;exitDx=0;exitDy=0;exitPerimeter=0;entryX=0;entryY=0.5;entryDx=0;entryDy=0;entryPerimeter=0;" edge="1" parent="1" source="_8FWMHebt4FlT4-nfuqf-6" target="_8FWMHebt4FlT4-nfuqf-23">
          <mxGeometry relative="1" as="geometry" />
        </mxCell>
        <mxCell id="_8FWMHebt4FlT4-nfuqf-31" style="edgeStyle=orthogonalEdgeStyle;rounded=0;orthogonalLoop=1;jettySize=auto;html=1;exitX=1;exitY=0.25;exitDx=0;exitDy=0;entryX=0;entryY=0.5;entryDx=0;entryDy=0;entryPerimeter=0;" edge="1" parent="1" source="_8FWMHebt4FlT4-nfuqf-1" target="_8FWMHebt4FlT4-nfuqf-14">
          <mxGeometry relative="1" as="geometry" />
        </mxCell>
        <mxCell id="_8FWMHebt4FlT4-nfuqf-34" value="CODEC" style="text;html=1;align=center;verticalAlign=middle;resizable=0;points=[];autosize=1;strokeColor=none;fillColor=none;" vertex="1" parent="1">
          <mxGeometry x="655" y="410" width="70" height="30" as="geometry" />
        </mxCell>
        <mxCell id="_8FWMHebt4FlT4-nfuqf-40" style="edgeStyle=orthogonalEdgeStyle;rounded=0;orthogonalLoop=1;jettySize=auto;html=1;entryX=0.6;entryY=1.017;entryDx=0;entryDy=0;entryPerimeter=0;" edge="1" parent="1">
          <mxGeometry relative="1" as="geometry">
            <mxPoint x="300" y="346" as="sourcePoint" />
            <mxPoint x="210" y="186.36000000000013" as="targetPoint" />
          </mxGeometry>
        </mxCell>
        <mxCell id="_8FWMHebt4FlT4-nfuqf-41" value="M_AXI_MM2S" style="text;html=1;align=center;verticalAlign=middle;resizable=0;points=[];autosize=1;strokeColor=none;fillColor=none;" vertex="1" parent="1">
          <mxGeometry x="285" y="130" width="110" height="30" as="geometry" />
        </mxCell>
        <mxCell id="_8FWMHebt4FlT4-nfuqf-43" value="M_AXIS_S2MM" style="text;html=1;align=center;verticalAlign=middle;resizable=0;points=[];autosize=1;strokeColor=none;fillColor=none;" vertex="1" parent="1">
          <mxGeometry x="205" y="260" width="120" height="30" as="geometry" />
        </mxCell>
        <mxCell id="_8FWMHebt4FlT4-nfuqf-44" value="M_AXIS_MM2S" style="text;html=1;align=center;verticalAlign=middle;resizable=0;points=[];autosize=1;strokeColor=none;fillColor=none;" vertex="1" parent="1">
          <mxGeometry x="342" y="290" width="120" height="30" as="geometry" />
        </mxCell>
        <mxCell id="_8FWMHebt4FlT4-nfuqf-45" value="S_AXI_S2MM" style="text;html=1;align=center;verticalAlign=middle;resizable=0;points=[];autosize=1;strokeColor=none;fillColor=none;" vertex="1" parent="1">
          <mxGeometry x="327" y="418" width="110" height="30" as="geometry" />
        </mxCell>
        <mxCell id="_8FWMHebt4FlT4-nfuqf-46" value="" style="endArrow=none;dashed=1;html=1;dashPattern=1 3;strokeWidth=2;rounded=0;" edge="1" parent="1">
          <mxGeometry width="50" height="50" relative="1" as="geometry">
            <mxPoint x="480" y="750" as="sourcePoint" />
            <mxPoint x="482" y="-39" as="targetPoint" />
            <Array as="points">
              <mxPoint x="482" y="320" />
            </Array>
          </mxGeometry>
        </mxCell>
        <mxCell id="_8FWMHebt4FlT4-nfuqf-47" value="AXI Interface" style="text;html=1;align=center;verticalAlign=middle;resizable=0;points=[];autosize=1;strokeColor=none;fillColor=none;" vertex="1" parent="1">
          <mxGeometry x="382" y="8" width="100" height="30" as="geometry" />
        </mxCell>
        <mxCell id="_8FWMHebt4FlT4-nfuqf-48" value="I2S Interface for DATA transaction" style="text;html=1;align=center;verticalAlign=middle;resizable=0;points=[];autosize=1;strokeColor=none;fillColor=none;" vertex="1" parent="1">
          <mxGeometry x="495" y="8" width="230" height="30" as="geometry" />
        </mxCell>
        <mxCell id="_8FWMHebt4FlT4-nfuqf-49" value="I2C for Control transactions" style="text;html=1;align=center;verticalAlign=middle;resizable=0;points=[];autosize=1;strokeColor=none;fillColor=none;" vertex="1" parent="1">
          <mxGeometry x="497" y="38" width="190" height="30" as="geometry" />
        </mxCell>
        <mxCell id="_8FWMHebt4FlT4-nfuqf-59" style="edgeStyle=orthogonalEdgeStyle;rounded=0;orthogonalLoop=1;jettySize=auto;html=1;exitX=1;exitY=0.5;exitDx=0;exitDy=0;exitPerimeter=0;entryX=0.22;entryY=0;entryDx=0;entryDy=0;entryPerimeter=0;" edge="1" parent="1" source="_8FWMHebt4FlT4-nfuqf-21" target="_8FWMHebt4FlT4-nfuqf-6">
          <mxGeometry relative="1" as="geometry" />
        </mxCell>
        <mxCell id="_8FWMHebt4FlT4-nfuqf-60" value="" style="endArrow=classic;html=1;rounded=0;" edge="1" parent="1">
          <mxGeometry width="50" height="50" relative="1" as="geometry">
            <mxPoint x="640" y="320" as="sourcePoint" />
            <mxPoint x="740" y="397" as="targetPoint" />
          </mxGeometry>
        </mxCell>
        <mxCell id="_8FWMHebt4FlT4-nfuqf-61" value="" style="endArrow=classic;html=1;rounded=0;exitX=0.17;exitY=0;exitDx=0;exitDy=0;exitPerimeter=0;" edge="1" parent="1" source="_8FWMHebt4FlT4-nfuqf-6">
          <mxGeometry width="50" height="50" relative="1" as="geometry">
            <mxPoint x="745" y="310" as="sourcePoint" />
            <mxPoint x="640" y="400" as="targetPoint" />
          </mxGeometry>
        </mxCell>
        <mxCell id="_8FWMHebt4FlT4-nfuqf-62" value="&lt;span style=&quot;background-color: rgb(166, 128, 184);&quot;&gt;DIGITAL DATA&lt;/span&gt;" style="text;html=1;align=center;verticalAlign=middle;resizable=0;points=[];autosize=1;strokeColor=none;fillColor=none;glass=1;" vertex="1" parent="1">
          <mxGeometry x="570" y="170" width="110" height="30" as="geometry" />
        </mxCell>
        <mxCell id="_8FWMHebt4FlT4-nfuqf-64" value="" style="endArrow=none;dashed=1;html=1;rounded=0;" edge="1" parent="1">
          <mxGeometry width="50" height="50" relative="1" as="geometry">
            <mxPoint x="689.5" y="680" as="sourcePoint" />
            <mxPoint x="689.5" y="110" as="targetPoint" />
          </mxGeometry>
        </mxCell>
        <mxCell id="_8FWMHebt4FlT4-nfuqf-65" value="&lt;span style=&quot;background-color: rgb(0, 0, 0); color: rgb(0, 255, 255);&quot;&gt;ANALOG DATA&lt;/span&gt;" style="text;html=1;align=center;verticalAlign=middle;resizable=0;points=[];autosize=1;strokeColor=none;fillColor=none;" vertex="1" parent="1">
          <mxGeometry x="687" y="170" width="120" height="30" as="geometry" />
        </mxCell>
        <mxCell id="_8FWMHebt4FlT4-nfuqf-67" value="CPU" style="text;html=1;align=center;verticalAlign=middle;resizable=0;points=[];autosize=1;strokeColor=none;fillColor=none;" vertex="1" parent="1">
          <mxGeometry x="90" y="345" width="50" height="30" as="geometry" />
        </mxCell>
        <mxCell id="_8FWMHebt4FlT4-nfuqf-68" style="edgeStyle=orthogonalEdgeStyle;rounded=0;orthogonalLoop=1;jettySize=auto;html=1;exitX=0.25;exitY=0;exitDx=0;exitDy=0;exitPerimeter=0;entryX=0.106;entryY=0.85;entryDx=0;entryDy=0;entryPerimeter=0;dashed=1;dashPattern=1 2;shape=arrow;fillColor=default;gradientColor=default;gradientDirection=north;" edge="1" parent="1" source="_8FWMHebt4FlT4-nfuqf-9" target="_8FWMHebt4FlT4-nfuqf-13">
          <mxGeometry relative="1" as="geometry" />
        </mxCell>
        <mxCell id="_8FWMHebt4FlT4-nfuqf-70" style="edgeStyle=orthogonalEdgeStyle;rounded=0;orthogonalLoop=1;jettySize=auto;html=1;entryX=0.5;entryY=0;entryDx=0;entryDy=0;entryPerimeter=0;exitX=0.333;exitY=0.963;exitDx=0;exitDy=0;exitPerimeter=0;shape=flexArrow;fillColor=default;gradientColor=default;" edge="1" parent="1" source="_8FWMHebt4FlT4-nfuqf-13" target="_8FWMHebt4FlT4-nfuqf-9">
          <mxGeometry relative="1" as="geometry" />
        </mxCell>
      </root>
    </mxGraphModel>
  </diagram>
</mxfile>
